<?xml version="1.0" encoding="utf-8"?>
<!-- Generator: Adobe Illustrator 26.3.1, SVG Export Plug-In . SVG Version: 6.00 Build 0)  -->
<svg version="1.1" xmlns="http://www.w3.org/2000/svg" xmlns:xlink="http://www.w3.org/1999/xlink" x="0px" y="0px"
	 viewBox="0 0 400 200" style="enable-background:new 0 0 400 200;" xml:space="preserve">
<style type="text/css">
	.st0{fill:none;}
	.st1{fill:#FEFEFE;}
	.st2{fill:#0095D5;}
</style>
<g id="Layer_3">
	<g>
	</g>
	<rect class="st0" width="400" height="200"/>
</g>
<g id="Layer_4">
	<g>
		<path class="st1" d="M200,176.4c-25.2,0-50.5,0-75.7,0c-0.5,0-0.7-0.1-0.7-0.7c0-50.5,0-101,0-151.4c0-0.6,0.2-0.7,0.7-0.7
			c50.5,0,100.9,0,151.4,0c0.6,0,0.7,0.1,0.7,0.7c0,50.5,0,100.9,0,151.4c0,0.7-0.2,0.7-0.8,0.7C250.4,176.4,225.2,176.4,200,176.4z
			"/>
		<path class="st2" d="M179.4,26.7c-2.2,6.2-4.4,12.2-6.6,18.2c-10.6,29.2-21.3,58.4-31.9,87.6c-0.3,0.9-0.3,0.9,0.6,0.9
			c4.8,0,9.6,0,14.5,0c0.6,0,0.8-0.2,1-0.7c6.7-18.3,13.4-36.7,20-55c0.3-0.7,0.6-0.9,1.3-0.9c3.5,0,6.9,0,10.4,0
			c0.8,0,0.8,0,0.5,0.8c-6.4,17.5-12.8,35-19.1,52.5c-0.3,1-0.7,1.9-1,2.9c-0.1,0.4-0.1,0.5,0.4,0.5c5,0,10.1,0,15.1,0
			c0.5,0,0.6-0.3,0.7-0.7c2.1-5.8,4.2-11.5,6.3-17.3c4.2-11.5,8.4-23.1,12.6-34.6c0.9-2.5,1.4-5.1,0.5-7.7c-1.3-3.7-4.1-5.6-7.8-6.2
			c-0.8-0.1-1.6-0.2-2.4-0.2c-4.2,0-8.4,0-12.7,0c-0.6,0-0.7-0.1-0.5-0.7c5.1-13.9,10.1-27.7,15.1-41.6c0.2-0.6,0.5-0.6,1-0.6
			c8.2-0.3,16.2,0.7,24.1,3c18.7,5.6,33.2,16.8,43.5,33.3c5.3,8.4,8.6,17.6,10.2,27.4c1.2,7.4,1.3,14.8,0.4,22.2
			c-3.7,28.2-22.7,52-49.5,61.8c-7.2,2.6-14.6,4.1-22.2,4.5c-1.8,0.1-3.6,0.1-5.4,0.1c-0.7,0-0.7-0.2-0.5-0.7
			c3.8-10.5,7.7-21,11.5-31.5c1.2-3.3,2.4-6.5,3.5-9.8c0.2-0.6,0.5-0.8,1.1-0.8c6.7,0,13.4,0,20.1,0c4.4,0,8.3-2.7,9.8-6.9
			c5.5-15.2,11.1-30.4,16.6-45.6c0.8-2.3,1.3-4.7,0.7-7.2c-0.9-3.7-3.9-6.3-7.9-6.9c-0.8-0.1-1.6-0.2-2.4-0.2c-9.6,0-19.2,0-28.8,0
			c-0.6,0-0.8,0.1-1.1,0.7c-8.2,22.5-16.3,45-24.5,67.4c-4.7,12.8-9.4,25.7-14,38.5c-0.2,0.6-0.4,0.7-1,0.5
			c-12.4-3.2-23.4-9-32.9-17.7c-11.4-10.4-19-23.1-22.7-38.1c-2-8-2.6-16.1-1.9-24.2c1.3-15.4,6.7-29.2,16.3-41.3
			c8.7-10.9,19.6-18.9,32.6-23.9c1.7-0.7,3.5-1.2,5.2-1.8C178.5,27,178.8,26.9,179.4,26.7z"/>
		<path class="st2" d="M216.9,123.3c0.8-2.2,1.6-4.4,2.4-6.6c4.8-13.1,9.5-26.1,14.3-39.2c0.2-0.6,0.4-0.8,1-0.8c3.6,0,7.1,0,10.7,0
			c0.6,0,0.7,0.1,0.5,0.7c-5.5,15.1-11,30.2-16.5,45.3c-0.1,0.4-0.2,0.7-0.7,0.7c-3.8,0-7.5,0-11.3,0
			C217.2,123.4,217.1,123.3,216.9,123.3z"/>
	</g>
</g>
</svg>
