<?xml version="1.0" encoding="utf-8"?>
<!-- Generator: Adobe Illustrator 26.2.1, SVG Export Plug-In . SVG Version: 6.00 Build 0)  -->
<svg version="1.1" id="Layer_1" xmlns="http://www.w3.org/2000/svg" xmlns:xlink="http://www.w3.org/1999/xlink" x="0px" y="0px"
	 viewBox="0 0 400 200" style="enable-background:new 0 0 400 200;" xml:space="preserve">
<style type="text/css">
	.st0{display:none;}
	.st1{display:inline;}
	.st2{display:inline;fill:#FF3300;}
	.st3{fill:#212121;}
	.st4{fill:#FFFFFF;}
	.st5{fill:#C3023B;}
</style>
<g id="Layer_1_00000109012596088753377090000003801382985161069756_" class="st0">
	<g id="Layer_1_00000075144583611687890070000013116092334686579591_" class="st1">
		<g class="st0">
			<path class="st2" d="M181.8,142.3c0-29.5,0-59,0-88.5c0.2,0,0.4,0,0.6,0c9.3,0,18.6,0,27.9,0c5.3,0,13.2,4.1,14.2,12.8
				c0.1,0.8,0.1,1.6,0.1,2.4c0,4.6,0,9.2,0,13.7c0,3.8-1.4,7.1-3.8,10c-1.2,1.4-2.7,2.5-4.7,2.9c3.3,0.5,5.7,2.1,7.3,4.8
				c0.8,1.3,1.2,2.7,1.2,4.2c0,8.6,0,17.3,0,25.9c0,5.1-3.3,9.3-8.3,11c-1.7,0.6-3.4,0.9-5.2,0.9c-9.6,0-19.2,0-28.8,0
				C182.1,142.4,182,142.3,181.8,142.3z M196.1,117.3c0,5.7,0,11.3,0,17c0,0.4,0,0.7,0.6,0.7c2.8,0,5.6,0,8.4,0
				c2.5,0,3.9-1.1,4.4-3.6c0.4-1.7,0.6-3.4,0.6-5.1c0.1-6,0.1-12.1,0-18.1c0-1.6-0.2-3.1-0.5-4.7c-0.5-3-2-4.1-5-4.1
				c-2.5,0-5.1,0-7.6,0c-0.9,0-0.9,0-0.9,0.9C196.1,106,196.1,111.7,196.1,117.3z M196.1,91.9c3.2,0,6.3,0.1,9.5,0
				c2.1,0,3.4-1.3,3.8-3.3c0.4-1.9,0.7-3.8,0.7-5.7c0.1-4.4,0-8.8-0.1-13.2c-0.1-1.6-0.5-3.1-0.9-4.6c-0.4-1.5-1.5-2.3-3-2.5
				c-0.6-0.1-1.1-0.1-1.7-0.1c-2.6,0-5.1,0-7.7,0c-0.2,0-0.4,0-0.6,0C196.1,72.2,196.1,82,196.1,91.9z"/>
			<path class="st2" d="M249.2,53.8c0,0.3,0,0.6,0,0.9c0,24.8,0,49.7,0,74.5c0,3.1,1.3,5.4,4.1,6.8c4.9,2.5,10.5-1.1,10.6-6.7
				c0-4.8,0-9.7,0-14.5c0-0.2,0-0.5,0-0.8c0.3,0,0.5,0,0.8,0c4.3,0,8.5,0,12.8,0c0.6,0,0.8,0.2,0.8,0.8c0,8.9,0,17.8,0,26.7
				c0,0.2,0,0.5,0,0.8c-0.3,0-0.5,0-0.7,0c-13.9,0-27.8,0-41.7,0c-0.6,0-0.8-0.1-0.8-0.8c0-29,0-58,0-87c0-0.7,0.2-0.8,0.8-0.8
				c4.3,0,8.5,0,12.8,0C248.7,53.8,248.9,53.8,249.2,53.8z"/>
			<path class="st2" d="M171,53.8c0,0.3,0,0.6,0,0.8c0,24,0,48,0,71.9c0,3.7-0.8,7.2-3.2,10.2c-2.3,2.9-5.3,4.6-8.7,5.6
				c-6.5,1.8-13.1,1.9-19.5-0.3c-5.5-1.9-9.4-5.5-11.2-11.2c-0.4-1.3-0.6-2.7-0.6-4c-0.1-4,0-8.1,0-12.1c0-0.5,0.1-0.7,0.6-0.7
				c4.3,0,8.7,0,13,0c0.2,0,0.4,0,0.6,0.1c0,0.3,0,0.6,0,0.9c0,4.8,0,9.5,0,14.3c0,2.9,1.1,5.1,3.6,6.7c4.4,2.7,10.1,0,10.9-5
				c0.1-0.6,0.1-1.3,0.1-2c0-24.6,0-49.3,0-73.9c0-0.2,0-0.4,0-0.6c0-0.4,0.1-0.5,0.6-0.5c1.6,0,3.3,0,4.9,0c2.7,0,5.4,0,8.1,0
				C170.5,53.8,170.7,53.8,171,53.8z"/>
			<path class="st2" d="M135,84.5c-4.4-10.3-8.8-20.5-13.2-30.7c8.8,0,17.6,0,26.4,0C143.8,64.1,139.4,74.2,135,84.5z"/>
			<path class="st2" d="M126.7,96.1c0-4.7,3.8-8.4,8.5-8.4c4.6,0,8.4,3.8,8.4,8.4s-3.8,8.5-8.5,8.5S126.7,100.8,126.7,96.1z"/>
		</g>
	</g>
	<g class="st1">
		<path class="st3" d="M286.2,100.6c-8.3,8.4-19.2,10.7-30.3,12.2c-11,1.5-22,2.9-33.1,4.2c-5.1,0.6-5.4,2.3-3.2,6.8
			c1.8,3.7,5.4,4.9,9.2,5.4c13.5,1.7,27-0.1,40.5-0.2c4.7,0,4.7-0.2,3.4,4.2c-2.7,9.2-3.2,9.7-12.8,10.3c-11.9,0.8-23.8,1.3-35.7,0
			c-8.6-0.9-16.8-3-22.6-10.2c-1.3,0.8-1.4,2-1.5,3c-0.4,3.8-2.8,5.6-6.2,6.2c-14.8,2.3-29.6,3-44.3-0.3c-10.6-2.4-17.1-8.9-18.2-21
			c-2.3,4.5-3.3,8.4-4.2,12.3c-1.2,5-4.3,7.1-8.9,8c-7.4,1.3-14.9,2-22.3,2.3c-11.8,0.5-23.6,1-35.3-1.7c-2.8-0.7-5.5-1.5-8-2.9
			c-7.8-4.3-9.6-12.6-4.8-21.1c3.6-6.3,9.4-9.5,15.9-12c9.4-3.7,19.4-4.6,29.3-6c7.6-1.1,15.2-2.3,22.9-3.5c2.5-0.4,3.4-2.4,3.7-4.7
			c0.4-2.9-0.9-5-3.5-6.3c-3.9-1.9-8-2.4-12.3-2.5c-11.8-0.1-23.6,1.2-35.3,2.1c-3.5,0.3-3.5,0-2.8-3.5c1.4-7.1,5.4-10.3,12.6-10.6
			c14.5-0.7,29-1.9,43.5,0.4c2.4,0.4,4.8,1.1,7.2,2c7.5,2.9,11.4,8.2,11.2,16.4c0.9,0.8,0.9,0.8,2.2-0.6c9-11.6,21.4-16.6,35.5-18.4
			c7.7-1,15.4-0.9,23.1-0.2c6.2,0.6,10.4,7.5,8.1,13.3c-0.7,1.8-2.2,1.4-3.5,1.2c-6.8-0.7-13.6-1-20.4-0.7
			c-5.3,0.3-10.6,1.3-15.5,3.6c-9.1,4.2-13.5,11.9-15.9,21.1c-0.4,1.7-0.7,3.5-1,5.3c-1.4,8.7,2.1,13.3,10.9,14.6
			c5.6,0.8,11.3,1,17,0.7c5.2-0.2,10.4-0.7,15.6-0.8c2.3-0.1,2.6-1,2.2-2.9c-3.4-21.1,10.4-48.3,38.8-54c13.6-2.7,27.3-2.7,40.9,0.2
			c2.7,0.6,5.3,1.5,7.6,2.9c4.1,2.4,6.9,5.8,6.8,10.8c0.8,0.4,1.3-0.1,1.6-0.5c6.9-9.4,16.9-12.9,27.8-14.6c8.8-1.3,17.7-1,26.5-0.3
			c6.3,0.5,7.6,2.9,5.4,8.8c-2.5,6.8-1.6,5.8-8.6,5.9s-14.1,0.1-21.1,0.4c-7.2,0.3-11,3.5-13,10.3c-4.2,14.5-8.5,29-12.6,43.6
			c-0.9,3.1-2.4,4.5-5.7,4.4c-4.4-0.2-8.9,0-13.3,0c-3.4,0-4.1-0.9-3.2-4.2c3.5-12.2,7-24.3,10.5-36.4
			C287,102.4,288.3,101,286.2,100.6z"/>
		<path class="st3" d="M142.5,89.3c-0.3,1.3-1.2,2.2-2.4,3c-0.7-0.9-0.3-1.6,0.1-2.4C141,89.7,141.7,89.5,142.5,89.3z"/>
		<path class="st3" d="M286.2,100.6c0.4-0.8,1-1.4,2.1-1.6c-0.3,1.7-0.5,3.2-1.4,4.4C286.7,102.5,287.3,101.3,286.2,100.6z"/>
		<path class="st4" d="M87.6,131.2c-6.1-0.4-11.2-0.3-16.1-2.1c-5.2-1.9-6.4-6.5-2.7-10.7c1.8-2,3.9-3.5,6.6-4
			c12.3-2.4,24.7-3.5,37.1-5.3c1.8-0.3,1.9,0.6,1.4,2c-1.9,5.7-3.7,11.4-5.5,17.1c-0.6,2-2.2,2.1-3.7,2.2
			C98.6,130.7,92.6,131,87.6,131.2z"/>
		<path class="st4" d="M254.4,83.2c4.2,0,8.4,0.1,12.4,1.5c2.3,0.8,4.5,1.8,4.9,4.6c0.4,3-1.1,5.3-3.4,6.9c-3.3,2.3-7,3.6-11,4.4
			c-10.9,2.2-21.9,3.3-32.9,4.9c-2.3,0.3-3.1,0.1-2.2-2.5c2.3-7.2,5.6-13.7,12.9-16.9c5.3-2.4,11.2-2.8,17-2.8
			C252.8,83.2,253.6,83.2,254.4,83.2z"/>
	</g>
</g>
<g id="Layer_3" class="st0">
</g>
<g id="Layer_2_00000037673967220301324050000010843263261329380245_">
	<g>
		<g>
			<g>
				<path class="st5" d="M124.9,56.6c18.9,0.1,35.7,11.9,41.8,29.5c5.7,16.4,0.8,34.8-12.2,46.2c-6.6,5.8-14.1,9.3-22.8,10.6
					c-23.2,3.5-44.5-11.1-49.5-32.6c-3.9-16.7,0.8-31,13.4-42.5c6.4-5.9,14.1-9.3,22.7-10.6C120.5,56.9,122.7,56.8,124.9,56.6z
					 M158.3,101.7c0,0.2,0,0.3,0,0.4c-0.3,2-0.3,4-0.9,5.9c-2.3,8.5-7.2,15.2-14.7,19.9c-7.8,4.8-16.3,6.2-25.2,4.3
					c-7.5-1.6-13.8-5.5-18.7-11.5c-4.1-5-6.7-10.8-7.3-17.3c-0.4-3.9-0.2-7.7,0.8-11.5c2.4-8.4,7.2-15,14.7-19.6
					c4.6-2.8,9.6-4.6,15-4.9c1.4-0.1,2.8,0,4.3,0c0-1,0-1.9,0-2.8c0-0.7-0.2-0.8-0.8-0.8c-7.1-0.1-13.7,1.6-19.8,5.2
					c-13.4,7.9-20.4,23.4-17.2,38.5c3.3,15.8,16.9,27.6,33,28.9c9.2,0.7,17.6-1.5,25-7c10.3-7.6,15.3-18,15-30.8
					c0-0.1,0-0.2-0.1-0.3c-8.8,0-17.5,0-26.2,0c0,1.2,0,2.3,0,3.5C143.2,101.7,150.7,101.7,158.3,101.7z M122.9,80.5
					c0,0.3,0,0.4,0,0.6c0,12.4,0,24.7,0,37.1c0,0.6,0.2,0.7,0.7,0.7c3.7,0,7.4,0,11.1,0c0.2,0,0.4,0,0.6,0c0-1.2,0-2.3,0-3.5
					c-2.9,0-5.6,0-8.5,0c0-11.6,0-23.2,0-34.9C125.4,80.5,124.2,80.5,122.9,80.5z M116.3,86.1c0-3-2.4-5.5-5.4-5.5s-5.5,2.4-5.5,5.4
					s2.4,5.5,5.5,5.5C113.9,91.5,116.3,89.1,116.3,86.1z"/>
				<path class="st4" d="M158.3,101.7c-7.6,0-15.1,0-22.7,0c0-1.2,0-2.3,0-3.5c8.7,0,17.5,0,26.2,0c0,0.1,0.1,0.2,0.1,0.3
					c0.3,12.9-4.7,23.2-15,30.8c-7.4,5.5-15.9,7.7-25,7c-16.1-1.3-29.7-13.2-33-28.9c-3.2-15.1,3.8-30.5,17.2-38.5
					c6.1-3.6,12.7-5.3,19.8-5.2c0.6,0,0.9,0.1,0.8,0.8c-0.1,0.9,0,1.8,0,2.8c-1.5,0-2.9-0.1-4.3,0c-5.4,0.3-10.4,2.1-15,4.9
					c-7.5,4.6-12.3,11.2-14.7,19.6c-1.1,3.7-1.2,7.6-0.8,11.5c0.6,6.5,3.1,12.3,7.3,17.3c4.9,6,11.2,9.9,18.7,11.5
					c8.9,1.9,17.4,0.6,25.2-4.3c7.5-4.7,12.4-11.4,14.7-19.9c0.5-1.9,0.6-3.9,0.9-5.9C158.3,102,158.3,101.9,158.3,101.7z"/>
				<path class="st4" d="M122.9,80.5c1.3,0,2.6,0,3.9,0c0,11.6,0,23.2,0,34.9c2.9,0,5.7,0,8.5,0c0,1.2,0,2.3,0,3.5
					c-0.2,0-0.4,0-0.6,0c-3.7,0-7.4,0-11.1,0c-0.5,0-0.7-0.1-0.7-0.7c0-12.4,0-24.7,0-37.1C122.9,80.9,122.9,80.7,122.9,80.5z"/>
				<path class="st4" d="M116.3,86.1c0,3-2.4,5.5-5.4,5.5s-5.5-2.5-5.5-5.5s2.5-5.4,5.5-5.4C113.9,80.6,116.3,83.1,116.3,86.1z"/>
			</g>
			<path d="M186.8,62.6H203v58.9h31.1v15.3h-47.3V62.6z"/>
			<path d="M278.3,95.8h35.1c0.2,0.8,0.4,1.8,0.5,3.1c0.2,1.3,0.2,2.5,0.2,3.6c0,5-0.7,9.5-2.2,13.4s-3.6,7.4-6.4,10.3
				c-3.2,3.4-7,6-11.5,7.9s-9.6,2.8-15.4,2.8c-5.2,0-10.1-0.9-14.7-2.8c-4.6-1.9-8.6-4.4-12.1-7.7c-3.4-3.3-6.2-7.2-8.1-11.7
				c-2-4.5-3-9.5-3-15c0-5.4,1-10.4,3-15c2-4.5,4.7-8.4,8.1-11.7c3.4-3.3,7.5-5.8,12.1-7.7c4.6-1.9,9.5-2.8,14.7-2.8
				c6,0,11.3,1,15.7,3.1c4.5,2.1,8.4,4.9,11.8,8.4l-10.5,10.3c-2.3-2.3-4.8-4.1-7.4-5.3c-2.6-1.2-5.9-1.8-9.8-1.8
				c-3,0-5.9,0.5-8.6,1.6s-5,2.6-7.1,4.6c-2,2-3.6,4.3-4.8,7.1c-1.2,2.7-1.7,5.8-1.7,9.2s0.6,6.4,1.7,9.2c1.2,2.7,2.8,5.1,4.8,7.1
				c2.1,2,4.4,3.5,7.2,4.6c2.7,1.1,5.6,1.6,8.7,1.6c6.1,0,11-1.6,14.6-4.9c1.1-1,2.2-2.2,3.1-3.7c1-1.5,1.7-3.1,2.3-4.9H278V95.8
				H278.3z"/>
		</g>
	</g>
</g>
</svg>
