<?xml version="1.0" encoding="utf-8"?>
<!-- Generator: Adobe Illustrator 26.2.1, SVG Export Plug-In . SVG Version: 6.00 Build 0)  -->
<svg version="1.1" id="Layer_1" xmlns="http://www.w3.org/2000/svg" xmlns:xlink="http://www.w3.org/1999/xlink" x="0px" y="0px"
	 viewBox="0 0 400 200" style="enable-background:new 0 0 400 200;" xml:space="preserve">
<style type="text/css">
	.st0{display:none;}
	.st1{display:inline;fill:#FF3300;}
	.st2{fill:#212121;}
</style>
<g id="Layer_1_00000043439559057763382320000017122476426895282845_">
	<g id="Layer_1_00000075144583611687890070000013116092334686579591_">
		<g class="st0">
			<path class="st1" d="M181.8,142.3c0-29.5,0-59,0-88.5c0.2,0,0.4,0,0.6,0c9.3,0,18.6,0,27.9,0c5.3,0,13.2,4.1,14.2,12.8
				c0.1,0.8,0.1,1.6,0.1,2.4c0,4.6,0,9.2,0,13.7c0,3.8-1.4,7.1-3.8,10c-1.2,1.4-2.7,2.5-4.7,2.9c3.3,0.5,5.7,2.1,7.3,4.8
				c0.8,1.3,1.2,2.7,1.2,4.2c0,8.6,0,17.3,0,25.9c0,5.1-3.3,9.3-8.3,11c-1.7,0.6-3.4,0.9-5.2,0.9c-9.6,0-19.2,0-28.8,0
				C182.1,142.4,182,142.3,181.8,142.3z M196.1,117.3c0,5.7,0,11.3,0,17c0,0.4,0,0.7,0.6,0.7c2.8,0,5.6,0,8.4,0
				c2.5,0,3.9-1.1,4.4-3.6c0.4-1.7,0.6-3.4,0.6-5.1c0.1-6,0.1-12.1,0-18.1c0-1.6-0.2-3.1-0.5-4.7c-0.5-3-2-4.1-5-4.1
				c-2.5,0-5.1,0-7.6,0c-0.9,0-0.9,0-0.9,0.9C196.1,106,196.1,111.7,196.1,117.3z M196.1,91.9c3.2,0,6.3,0.1,9.5,0
				c2.1,0,3.4-1.3,3.8-3.3c0.4-1.9,0.7-3.8,0.7-5.7c0.1-4.4,0-8.8-0.1-13.2c-0.1-1.6-0.5-3.1-0.9-4.6c-0.4-1.5-1.5-2.3-3-2.5
				c-0.6-0.1-1.1-0.1-1.7-0.1c-2.6,0-5.1,0-7.7,0c-0.2,0-0.4,0-0.6,0C196.1,72.2,196.1,82,196.1,91.9z"/>
			<path class="st1" d="M249.2,53.8c0,0.3,0,0.6,0,0.9c0,24.8,0,49.7,0,74.5c0,3.1,1.3,5.4,4.1,6.8c4.9,2.5,10.5-1.1,10.6-6.7
				c0-4.8,0-9.7,0-14.5c0-0.2,0-0.5,0-0.8c0.3,0,0.5,0,0.8,0c4.3,0,8.5,0,12.8,0c0.6,0,0.8,0.2,0.8,0.8c0,8.9,0,17.8,0,26.7
				c0,0.2,0,0.5,0,0.8c-0.3,0-0.5,0-0.7,0c-13.9,0-27.8,0-41.7,0c-0.6,0-0.8-0.1-0.8-0.8c0-29,0-58,0-87c0-0.7,0.2-0.8,0.8-0.8
				c4.3,0,8.5,0,12.8,0C248.7,53.8,248.9,53.8,249.2,53.8z"/>
			<path class="st1" d="M171,53.8c0,0.3,0,0.6,0,0.8c0,24,0,48,0,71.9c0,3.7-0.8,7.2-3.2,10.2c-2.3,2.9-5.3,4.6-8.7,5.6
				c-6.5,1.8-13.1,1.9-19.5-0.3c-5.5-1.9-9.4-5.5-11.2-11.2c-0.4-1.3-0.6-2.7-0.6-4c-0.1-4,0-8.1,0-12.1c0-0.5,0.1-0.7,0.6-0.7
				c4.3,0,8.7,0,13,0c0.2,0,0.4,0,0.6,0.1c0,0.3,0,0.6,0,0.9c0,4.8,0,9.5,0,14.3c0,2.9,1.1,5.1,3.6,6.7c4.4,2.7,10.1,0,10.9-5
				c0.1-0.6,0.1-1.3,0.1-2c0-24.6,0-49.3,0-73.9c0-0.2,0-0.4,0-0.6c0-0.4,0.1-0.5,0.6-0.5c1.6,0,3.3,0,4.9,0c2.7,0,5.4,0,8.1,0
				C170.5,53.8,170.7,53.8,171,53.8z"/>
			<path class="st1" d="M135,84.5c-4.4-10.3-8.8-20.5-13.2-30.7c8.8,0,17.6,0,26.4,0C143.8,64.1,139.4,74.2,135,84.5z"/>
			<path class="st1" d="M126.7,96.1c0-4.7,3.8-8.4,8.5-8.4c4.6,0,8.4,3.8,8.4,8.4s-3.8,8.5-8.5,8.5S126.7,100.8,126.7,96.1z"/>
		</g>
	</g>
	<g>
		<path class="st2" d="M361.4,60.3c-9.6-0.8-19.2-1.1-28.8,0.3c-11.9,1.7-22.8,5.6-30.3,15.8c-0.4,0.4-0.9,0.9-1.8,0.5
			c0.1-5.4-2.9-9.2-7.4-11.8c-2.6-1.5-5.4-2.5-8.3-3.1c-14.8-3.2-29.7-3.1-44.5-0.2c-30.9,6.1-45.9,35.7-42.2,58.7
			c0.4,2.2,0.1,3.1-2.4,3.2c-5.7,0.2-11.3,0.7-17,0.9c-6.2,0.3-12.4,0.1-18.5-0.8c-9.5-1.4-13.3-6.4-11.8-15.9
			c0.3-1.9,0.6-3.9,1.1-5.8c2.6-10,7.4-18.4,17.3-23c5.4-2.5,11.1-3.6,16.9-3.9c7.4-0.3,14.8,0,22.2,0.8c1.4,0.2,3,0.6,3.8-1.3
			c2.5-6.3-2.1-13.9-8.8-14.5c-8.4-0.8-16.8-0.9-25.2,0.2c-15.3,2-28.8,7.4-38.6,20c-1.5,1.5-1.5,1.5-2.4,0.6
			c0.2-8.8-4-14.6-12.2-17.8c-2.5-1-5.1-1.8-7.8-2.2c-15.8-2.5-31.6-1.2-47.4-0.4c-7.8,0.3-12.2,3.8-13.7,11.5
			c-0.7,3.8-0.7,4.1,3.1,3.8c12.8-0.9,25.6-2.3,38.5-2.2c4.6,0.1,9.1,0.7,13.3,2.7c2.8,1.4,4.2,3.7,3.8,6.9c-0.3,2.5-1.2,4.7-4,5.1
			c-8.3,1.3-16.6,2.6-24.9,3.8c-10.8,1.5-21.7,2.5-31.9,6.5c-7,2.8-13.4,6.3-17.3,13.1c-5.3,9.2-3.3,18.3,5.2,23
			c2.7,1.5,5.7,2.4,8.7,3.1c12.7,3,25.6,2.4,38.4,1.9c8.1-0.3,16.3-1,24.3-2.5c5-0.9,8.4-3.3,9.7-8.7c1-4.2,2.1-8.5,4.6-13.4
			c1.2,13.1,8.3,20.2,19.8,22.8c16,3.6,32.2,2.8,48.3,0.3c3.8-0.6,6.3-2.6,6.8-6.7c0.1-1.1,0.3-2.4,1.7-3.3
			c6.3,7.8,15.3,10.1,24.6,11.1c13,1.5,25.9,0.8,38.9,0c10.6-0.7,11.1-1.2,14-11.2c1.4-4.7,1.4-4.5-3.7-4.5
			c-14.7,0.1-29.4,2.1-44.1,0.2c-4.3-0.5-8.1-1.9-10.1-5.9c-2.5-4.9-2.1-6.8,3.4-7.4c12-1.3,24-2.8,36-4.5
			c12.1-1.7,23.9-4.2,33-13.3c2.3,0.4,0.9,1.9,0.5,3.2c-3.8,13.3-7.6,26.5-11.4,39.7c-1,3.5-0.3,4.5,3.4,4.5c4.9,0,9.7-0.2,14.5,0
			c3.7,0.1,5.3-1.4,6.3-4.8c4.5-15.9,9.1-31.7,13.7-47.5c2.2-7.4,6.2-10.8,14.1-11.2c7.7-0.4,15.3-0.4,23-0.5c7.7,0,6.7,1,9.4-6.4
			C369.6,63.4,368.2,60.9,361.4,60.3z M106.1,104.2c-2,6.2-4.1,12.4-5.9,18.6c-0.7,2.2-2.4,2.3-4.1,2.4c-6.6,0.3-13.1,0.6-18.6,0.9
			c-6.6-0.5-12.2-0.3-17.5-2.3c-5.7-2.1-7-7.1-3-11.6c1.9-2.2,4.3-3.8,7.2-4.3c13.4-2.6,26.9-3.8,40.3-5.8
			C106.4,101.8,106.6,102.7,106.1,104.2z M274.2,88c-3.6,2.5-7.7,3.9-11.9,4.8c-11.8,2.4-23.9,3.6-35.8,5.3
			c-2.5,0.4-3.4,0.1-2.4-2.8c2.5-7.8,6.1-14.9,14-18.4c5.8-2.6,12.1-3,18.5-3.1h2.5c4.6,0,9.1,0.1,13.5,1.6c2.5,0.9,4.9,1.9,5.3,5
			C278.3,83.7,276.7,86.2,274.2,88z"/>
		<path class="st2" d="M137.3,80.4c-0.4,1.4-1.3,2.4-2.6,3.2c-0.7-1-0.4-1.8,0.1-2.6C135.6,80.9,136.4,80.6,137.3,80.4z"/>
		<path class="st2" d="M293.7,92.8c0.5-0.8,1-1.5,2.3-1.8c-0.4,1.8-0.5,3.4-1.5,4.8C294.3,94.8,294.9,93.6,293.7,92.8z"/>
	</g>
</g>
<g id="Layer_3">
</g>
<g id="Layer_2_00000017480136391039896380000004700626115234419874_" class="st0">
</g>
</svg>
