<?xml version="1.0" encoding="utf-8"?>
<!-- Generator: Adobe Illustrator 25.2.0, SVG Export Plug-In . SVG Version: 6.00 Build 0)  -->
<svg version="1.1" id="Layer_1" xmlns="http://www.w3.org/2000/svg" xmlns:xlink="http://www.w3.org/1999/xlink" x="0px" y="0px"
	 viewBox="0 0 400 200" style="enable-background:new 0 0 400 200;" xml:space="preserve">
<style type="text/css">
	.st0{fill:#E82E2E;}
</style>
<path d="M304.3,112.9H304l-8.6-25.8h-6.2c-2.9,8.7-5.8,17.2-8.6,25.8h-0.3c-2.8-8.6-5.6-17.2-8.4-25.8c-2.7-0.3-5.4-0.2-8.1,0.2
	c4.4,12.6,8.8,25.1,13.3,37.7h6.4l8.6-24.5h0.4c2.8,8.2,5.6,16.3,8.3,24.4h6.7c4.4-12.6,8.7-25.2,13.1-37.9h-7.9
	C309.9,95.8,307.1,104.4,304.3,112.9z"/>
<path d="M170.7,87.4v5.1c0,1.7,0,3.3,0,5c0.1,1.7,0,3.3-0.1,5c-2.1,0.3-16.3,0.2-17.5-0.1c-0.1-5,0-10-0.1-15.1h-7.8v37.9h7.9v-15.2
	c1.7-0.4,16.4-0.3,17.6,0.1v5.1c0,1.7,0,3.3,0,5s-0.1,3.4,0,5h7.5V87.2C175.7,87,173.2,87,170.7,87.4z"/>
<path d="M334.9,108.6h13.8v-6.8h-4.7c-1.6,0-3.1,0-4.7,0s-3.1,0.1-4.7-0.1c0-1.4,0-2.7,0-3.9c-0.1-1.3,0-2.6,0.2-3.8h20.4
	c0-2.3,0-4.5,0-6.8h-28.1c-0.3,2.1-0.2,36.8,0.1,37.9h28.7v-6.8h-21.1C334.4,115,334.4,111.8,334.9,108.6z"/>
<path d="M214.6,87.1c0,0.7-0.1,1.2-0.1,1.8c0,6.3,0,12.5,0,18.8c0,1,0,2.1-0.1,3.2c-0.4,3.8-2.4,6.4-5.8,7.2c-1,0.3-2.1,0.4-3.1,0.4
	c-4.8-0.1-7.7-2.6-8.4-7.4c-0.1-1-0.2-2.1-0.2-3.2c0-6.4,0-12.8,0-19.3c0-0.5,0-1-0.1-1.6h-7.4c0,0.6-0.1,1.1-0.1,1.5
	c0,6.7,0,13.3,0,20c0,1.7,0.1,3.3,0.4,4.9c1.2,6.1,4.7,10.2,10.9,11.7c3.6,0.9,7.4,0.8,11-0.2c4.4-1.1,7.9-4.4,9.3-8.7
	c0.8-2.2,1.2-4.6,1.2-6.9c0-7.1,0-14.2,0-21.2c0-0.4-0.1-0.8-0.1-1.2L214.6,87.1z"/>
<path d="M259.8,110c-3.2-7.3-6.4-14.6-9.6-21.9c-0.2-0.8-1-1.4-1.9-1.3c-1.4,0.1-2.8,0.1-4.2,0c-0.8-0.1-1.6,0.4-1.8,1.2
	c-0.5,1.3-1.1,2.5-1.6,3.7c-4.7,10.6-9.3,21.2-13.9,31.8c-0.2,0.5-0.4,1-0.6,1.6c2.4,0,4.6,0,6.7,0c0.7,0.1,1.4-0.4,1.6-1.1
	c0.8-1.9,1.8-3.8,2.6-5.8c0.2-0.8,1.1-1.4,1.9-1.2c4.9,0.1,9.8,0,14.8,0c0.4,0,0.8,0.1,1.2,0.1l3.3,7.8h8.1
	c-0.2-0.6-0.4-1.1-0.6-1.6C263.8,119,261.8,114.5,259.8,110z M239.9,110.2c2.1-4.6,4.1-8.9,6.3-13.7l5.7,13.7H239.9z"/>
<path d="M365.4,87.2v37.9h7.5V87.2H365.4z"/>
<path class="st0" d="M95.5,89.9c1.7-3.7,2.8-7.6,3.3-11.7c0.6-6.7-3.6-13-10-15c-1.6-0.5-3.2-0.7-4.8-1.1c-0.6-0.2-1.3,0.1-1.5,0.7
	c0,0,0,0.1,0,0.1c-0.6,1.4-1.3,2.8-1.8,4.3c-1.9,6.1-3,12.4-3.2,18.8c-0.5,9.4-0.3,18.9,0.6,28.3c0.1,1.4,0.3,2.9,0.5,4.3l0.4,0.1
	c0.3-0.3,0.6-0.7,0.8-1c1-1.5,2-2.9,2.9-4.4C87.5,105.8,91.8,98,95.5,89.9z"/>
<path class="st0" d="M70.1,65.6c-0.5-1.2-1.1-2.3-1.7-3.6c-2,0.5-4,0.9-5.8,1.5c-3.5,1-6.4,3.5-8.1,6.8c-1.7,3.3-2.1,7.1-1.3,10.7
	c0.9,4.3,2.4,8.5,4.5,12.4c4.2,8.5,9,16.8,14.4,24.6c0.2,0.3,0.4,0.5,0.8,1c0.1-0.6,0.2-1,0.2-1.3c0.2-3,0.5-6.1,0.7-9.1
	c0.8-10.3,0.6-20.6-0.7-30.8C72.5,73.6,71.5,69.5,70.1,65.6z"/>
<path class="st0" d="M114.3,101.8c4.2-3.9,5.8-8.8,4.1-14.5c-1.3-4.6-4.1-8.3-7.6-11.8C99.6,89.6,90.1,105,82.6,121.4
	c0.3-0.1,0.7-0.2,1-0.3c8-3.9,15.7-8.3,23.1-13.2C109.3,106,111.9,104,114.3,101.8z"/>
<path class="st0" d="M33.2,87.2c-1.8,5.1-0.3,10.8,3.8,14.4c2,1.9,4.2,3.7,6.5,5.3c7.7,5.3,15.7,10,24.1,14c0.3,0.1,0.5,0.2,0.8,0.3
	l0.2-0.2c-7.6-16.2-17-31.4-28-45.5C37.4,79,34.6,82.7,33.2,87.2z"/>
<path class="st0" d="M125.2,101.1c-0.6,0.3-1,0.5-1.3,0.7c-5.7,3.2-11.4,6.3-17,9.6c-6.8,4-13.6,8.2-20.3,12.3
	c-0.5,0.3-0.9,0.6-1.4,1c0,0.1,0.1,0.2,0.1,0.3c0.5,0,1,0.1,1.6,0.1c6.9,0,13.8,0,20.8,0c10.2-0.1,18.5-8.4,18.4-18.6
	C126.1,104.7,125.8,102.9,125.2,101.1L125.2,101.1z"/>
<path class="st0" d="M26.3,101.5c-0.8,2.8-1,5.7-0.5,8.6c1.4,8.4,8.4,14.6,16.9,15c7.5,0.2,15,0,22.6,0c0.3-0.1,0.6-0.1,0.9-0.3
	C64.5,122.6,31.3,103.2,26.3,101.5z"/>
<path class="st0" d="M85.7,127.9c0.2,0.4,0.5,0.7,0.9,1c2.6,1.7,5.1,3.5,7.8,5.1c1.7,1.1,3.5,2,5.3,2.9c3.6,1.8,7.1,1.3,10.4-0.8
	c2.3-1.6,4.2-3.6,5.7-5.9c0.3-0.4,0.6-0.9,0.9-1.5c-5.3-0.2-10.4-0.5-15.5-0.6S90.9,127.5,85.7,127.9z"/>
<path class="st0" d="M34.4,128.6c2.5,4,5.2,7.2,9.5,8.7c0.8,0.3,1.6,0.4,2.5,0.5c1.9,0.2,3.7-0.2,5.4-1.1c4.7-2.4,9.1-5.2,13.4-8.4
	c0.1-0.1,0.3-0.3,0.4-0.4l-0.1-0.4C55.2,127.9,45,128.2,34.4,128.6z"/>
</svg>
