<?xml version="1.0" encoding="utf-8"?>
<!-- Generator: Adobe Illustrator 25.2.0, SVG Export Plug-In . SVG Version: 6.00 Build 0)  -->
<svg version="1.1" id="Layer_1" xmlns="http://www.w3.org/2000/svg" xmlns:xlink="http://www.w3.org/1999/xlink" x="0px" y="0px"
	 viewBox="0 0 400 200" style="enable-background:new 0 0 400 200;" xml:space="preserve">
<style type="text/css">
	.st0{fill:#11358E;}
</style>
<path class="st0" d="M55.8,99.1c-1.4-0.9-2.9-1.9-4.4-2.8c-2.6-1.5-5.3-2.8-7.8-4.3c-1.4-0.8-2.6-1.8-3.6-3c-1.2-1.7-1.1-4,0.2-5.7
	c1.4-1.5,3.6-2,5.6-1.3c1.8,0.6,3,2.3,2.9,4.2c0,0.9,0,1.9,0,3c3.2,0,6.2,0,9.2,0c3.5,0,3,0.6,3-3.1c-0.1-6.4-3-10.2-9.2-11.7
	c-5.1-1.3-10.4-1.2-15.4,0.2c-4.6,1.3-7.9,4-9,8.8c-1.2,5.3-0.6,10.1,3.8,13.9c1.3,1.1,2.6,2.1,4.1,3c3,1.8,6.2,3.4,9.2,5.3
	c1.7,1.1,3.2,2.4,4.5,3.9c1.4,1.7,1.1,4.6-0.2,6.3c-1.2,1.5-3.8,2.1-6.1,1.3s-3-2.1-3-4.8c0-1.4,0-2.7,0-4.2H26.3v5.5
	c0.1,0.2,0.2,0.4,0.3,0.7c0.7,5.9,4.3,9.3,9.9,10.9c5.1,1.4,10.5,1.4,15.5,0.1c4-1,7.3-3.1,8.9-7.1c0.5-1.6,0.9-3.3,1.1-5
	C62.8,107.2,60.9,102.5,55.8,99.1z"/>
<path class="st0" d="M216.9,98.9c-3.3-2.1-6.8-3.9-10.2-5.9c-1.7-1-3.4-2.2-4.9-3.5c-1.5-1.3-1.5-3.2-1-5.1c0.5-1.6,1.9-2.7,3.6-2.7
	c3.3-0.5,5.5,1.4,5.6,4.7c0,0.9,0,1.8,0,2.6H222v-2.8c0-6.7-3-10.4-9.5-12c-1.6-0.4-3.3-0.6-5-0.9h-4.3c-1.7,0.3-3.4,0.5-5.1,0.9
	c-4.8,1.2-8.5,3.8-9.7,9c-1.2,5.4-0.5,10.3,4,14.1c1.3,1.1,2.6,2,4,2.9c3.1,1.8,6.2,3.5,9.2,5.3c1.6,0.9,3.1,2.1,4.3,3.6
	c1.8,2.2,1.5,5.3-0.7,7.1c-0.7,0.6-1.5,1-2.4,1.1c-3.7,0.6-6.1-1.4-6.1-5.2c0-1.3,0-2.6,0-3.9h-13c0,1.7-0.1,3.3,0,4.9
	c0.3,4.9,2.5,8.8,7.2,10.8c6.6,2.8,14.1,2.9,20.8,0.3c3.2-1.1,5.7-3.8,6.7-7.1c0.9-3.2,1.1-6.5,0.6-9.8
	C222.5,103.6,220,100.9,216.9,98.9z"/>
<path class="st0" d="M173.8,75.2c-6.1,0-12.2,0-18.4,0c-1,0-1.1,0.6-1.1,1.3c-1.7,10.3-3.3,20.7-5,31c-0.3,1.8-0.6,3.5-0.9,5.3
	c-0.3-0.2-0.5-0.5-0.6-0.9c-1.9-11.8-3.9-23.6-5.7-35.4c-0.2-1.1-0.6-1.3-1.6-1.3c-5.8,0-11.6,0-17.3,0c-0.4,0-0.8,0-1.3,0.1
	c-0.4,16.3-0.7,32.6-1.1,49h8.2c4,0,4,0,4-4c0.1-12.8,0.1-25.5,0.2-38.3c0-0.6,0.1-1.3,0.1-1.9c0.3,0.3,0.6,0.7,0.6,1.2
	c0.9,4.8,1.8,9.6,2.7,14.4c1.7,9.2,3.4,18.3,5.1,27.5c0.1,0.6,0.2,1.1,1,1.1c3.8,0,7.6,0,11.6,0c2.8-14.8,5.5-29.5,8.3-44.1h0.7v44
	h12.3c-0.4-16.4-0.7-32.6-1.1-48.8C174.2,75.2,174,75.2,173.8,75.2z"/>
<path class="st0" d="M313.7,113.6l-0.4,0.1c-0.1-0.4-0.3-0.9-0.4-1.3c-3.5-11.9-7.1-23.9-10.5-35.8c-0.1-0.9-0.9-1.6-1.8-1.5
	c-0.1,0-0.1,0-0.2,0c-4.9,0.1-9.8,0-14.7,0c-1.9,0-1.9,0-1.9,2v44.6c-0.1,0.4,0,0.8,0,1.1c0.1,0.3,0.5,0.8,0.8,0.8
	c3.6,0,7.3,0,11.2,0c-0.2-13.4-0.5-26.6-0.7-39.8l0.5-0.1c0.2,0.5,0.4,1,0.5,1.6c3.8,12.3,7.5,24.6,11.2,36.9
	c0.1,0.9,0.9,1.5,1.8,1.4c0,0,0.1,0,0.1,0c4.8-0.1,9.6,0,14.5,0c0.5,0,0.9-0.1,1.4-0.1V75.3H313C313.2,88.1,313.5,100.9,313.7,113.6
	z"/>
<path class="st0" d="M269.4,75.2h-12.2v15.3c0,7.3,0,14.6,0,21.9c0.1,2.1-1.2,4-3.3,4.5c-3.8,1-6.6-1.1-6.6-5.1
	c0-11.5,0-23.1,0-34.7v-1.9h-12.4v8c0,9.4,0,18.9,0,28.3c0,7,3,11.3,9.1,13.1c5.5,1.6,11.3,1.6,16.8-0.1c3.9-1.2,6.7-3.6,7.9-7.5
	c0.5-1.7,0.8-3.5,0.8-5.2c0.1-11.8,0-23.5,0-35.2C269.5,76.1,269.5,75.7,269.4,75.2z"/>
<path class="st0" d="M355.9,96.8c0,2.1,0,4.2,0,6.2c0,0.2,0.6,0.7,1,0.7c1.3,0.1,2.7,0,4.1,0c0,2.7,0,5.2,0,7.7c0,3.2-2,5.1-5.3,5.1
	s-5.2-1.8-5.3-5.1c0-7.8,0-15.6,0-23.4c0-0.4,0-0.8,0-1.2c0.1-2.6,2.3-4.6,4.9-4.4c0,0,0,0,0,0c3.2,0,5,1.3,5.3,4.2
	c0.1,0.9,0.2,1.8,0.1,2.7c0,0.9,0.3,1.2,1.3,1.2c2.5,0,5,0,7.5,0c3.6,0,3.6,0,3.4-3.6c-0.3-6.6-3.5-10.6-9.9-12.3
	c-4.5-1.2-9.2-1.3-13.7-0.3c-7.1,1.6-10.8,5.5-11,12.8c-0.3,8.4-0.1,16.9,0,25.3c0.1,5.5,3,9.3,8.2,11.2c5.8,2.1,12.2,2.2,18,0.1
	c4.6-1.5,7.8-4.7,8.3-9.6c0.5-5.8,0.4-11.6,0.6-17.4L355.9,96.8z"/>
<path class="st0" d="M80.4,75.2c-0.9,0-1,0.5-1.1,1.2c-2.2,11.8-4.4,23.6-6.6,35.3c-0.8,4.2-1.5,8.3-2.3,12.6h13.1
	c2.3-14.9,4.5-29.7,6.8-44.5h0.4c0.1,0.6,0.3,1.1,0.4,1.7c2.1,13.9,4.1,27.8,6.1,41.6c0.1,1,0.5,1.3,1.4,1.3c1.2-0.1,2.5,0,3.8,0
	h8.1c-3.1-16.5-6.1-32.8-9.1-49.1C94.3,75.2,87.3,75.2,80.4,75.2z"/>
</svg>
