<svg width="121" height="40" viewBox="0 0 121 40" fill="none" xmlns="http://www.w3.org/2000/svg">
<path d="M35.9879 16.2167C35.9825 17.2061 35.634 18.0876 34.9618 18.8274C33.4733 20.4611 31.9813 22.0913 30.4893 23.7215C29.7709 24.5074 28.8817 24.8932 27.8058 24.8897C25.0725 24.8791 22.341 24.8862 19.6077 24.8862C19.4601 24.8862 19.309 24.8897 19.1667 24.8578C18.7595 24.7676 18.5674 24.3711 18.7772 24.0135C18.8982 23.8065 19.0831 23.633 19.2556 23.4595C22.1152 20.5815 24.9765 17.707 27.836 14.829C28.1046 14.5582 28.3731 14.2874 28.6434 14.0165L28.6594 14.0006C28.8017 13.8572 28.951 13.721 29.0791 13.567L35.4242 7.02678C35.778 6.66393 35.8616 6.11523 35.6322 5.66565C35.5718 5.54883 35.5077 5.43732 35.4384 5.33643C35.8047 5.84619 35.9879 6.44091 35.9897 7.10112C35.9986 10.1402 36.0021 13.1776 35.9879 16.2167Z" fill="url(#paint0_linear_3467_148748)"/>
<path d="M35.4245 7.02694L29.0795 13.5671C29.0919 13.553 29.1044 13.537 29.1168 13.5211C29.7961 12.668 29.3427 11.5121 28.2597 11.3475C28.0178 11.3104 27.7688 11.3263 27.5234 11.3263C23.7569 11.3263 19.4516 11.3174 15.6833 11.3316C15.02 11.3351 14.4332 11.1829 13.8588 10.8555C10.8498 9.13856 7.83025 7.43936 4.8142 5.73484C4.66483 5.64988 4.51367 5.56669 4.36962 5.47465C4.0353 5.26225 3.93749 4.95604 4.03708 4.58433C4.13133 4.23387 4.38563 4.05687 4.73062 4.01616C4.94936 3.98961 5.17343 4.00377 5.39394 4.00377C9.82553 4.00377 14.7959 4.00377 19.2275 4.00377C23.6591 4.00377 28.1885 4.00731 32.6681 4.002H32.6735C33.5431 4.002 34.322 4.22856 34.9746 4.81621C35.1507 4.97551 35.3036 5.14543 35.4334 5.32597C35.4334 5.32951 35.437 5.33128 35.4388 5.33482C35.5081 5.43748 35.5721 5.54722 35.6326 5.66404C35.862 6.11539 35.7766 6.66232 35.4245 7.02518V7.02694Z" fill="url(#paint1_linear_3467_148748)"/>
<path d="M4.01348 23.7854C4.01881 22.7959 4.36736 21.9145 5.03957 21.1746C6.52803 19.5409 8.02004 17.9107 9.51206 16.2805C10.2305 15.4947 11.1197 15.1088 12.1956 15.1123C14.9288 15.1229 17.6603 15.1159 20.3936 15.1159C20.5412 15.1159 20.6924 15.1123 20.8347 15.1442C21.2419 15.2345 21.434 15.6309 21.2241 15.9885C21.1032 16.1956 20.9182 16.369 20.7457 16.5425C17.8862 19.4205 15.0249 22.295 12.1653 25.1731C11.8968 25.4439 11.6283 25.7147 11.358 25.9855L11.342 26.0014C11.1997 26.1448 11.0503 26.2811 10.9223 26.4351L4.57721 32.9752C4.22332 33.3381 4.13974 33.8868 4.36914 34.3364C4.42961 34.4532 4.49363 34.5647 4.56298 34.6656C4.19664 34.1558 4.01348 33.5611 4.0117 32.9009C4.00281 29.8618 3.99925 26.8245 4.01348 23.7854Z" fill="url(#paint2_linear_3467_148748)"/>
<path d="M4.57417 32.9735L10.9192 26.4333C10.9068 26.4475 10.8943 26.4634 10.8819 26.4794C10.2026 27.3325 10.656 28.4883 11.739 28.6529C11.9809 28.6901 12.2299 28.6742 12.4753 28.6742C16.2418 28.6742 20.5471 28.683 24.3154 28.6689C24.9787 28.6653 25.5655 28.8176 26.1399 29.145C29.1488 30.8619 32.1684 32.5611 35.1845 34.2656C35.3339 34.3506 35.485 34.4338 35.6291 34.5258C35.9634 34.7382 36.0612 35.0444 35.9616 35.4161C35.8674 35.7666 35.6131 35.9436 35.2681 35.9843C35.0493 36.0109 34.8253 35.9967 34.6048 35.9967C30.1732 35.9967 25.2027 35.9967 20.7712 35.9967C16.3396 35.9967 11.8102 35.9932 7.33057 35.9985H7.32524C6.45563 35.9985 5.67673 35.7719 5.02408 35.1843C4.84803 35.025 4.69509 34.855 4.56527 34.6745C4.56527 34.671 4.56172 34.6692 4.55994 34.6657C4.49058 34.563 4.42656 34.4533 4.3661 34.3364C4.1367 33.8851 4.22206 33.3382 4.57417 32.9753V32.9735Z" fill="url(#paint3_linear_3467_148748)"/>
<path d="M66.3299 35.5613L63.7603 32.9919C63.6315 32.8631 63.6339 32.6546 63.7652 32.5283L64.3944 31.9236C64.7526 31.5569 65.0212 31.1571 65.2015 30.723C65.2677 30.5635 65.3021 30.393 65.3021 30.2201V30.1747C65.3021 29.5652 64.8078 29.0709 64.1982 29.0709H60.6681C58.2812 29.0709 56.239 28.2173 54.5439 26.5113C52.8476 24.8262 52 22.7695 52 20.3387V19.447C52.065 17.1143 52.9126 15.1324 54.5439 13.5012C56.2402 11.7953 58.2812 10.9417 60.6681 10.9417H69.3509C70.0685 10.9417 70.6499 11.523 70.6499 12.2405V15.6757C70.6499 16.0265 70.5088 16.3613 70.2574 16.6066L65.9681 20.7814C65.762 20.9813 65.4174 20.8354 65.4174 20.5484V17.5215C65.4174 16.804 64.836 16.2227 64.1184 16.2227H60.6693C59.7506 16.2227 58.962 16.5416 58.3033 17.1781C57.6336 17.8159 57.2718 18.5934 57.2178 19.5108V20.5312C57.2718 21.4707 57.6336 22.2544 58.3033 22.8798C58.962 23.5274 59.7506 23.8524 60.6693 23.8524H69.3522C70.0697 23.8524 70.6511 24.4338 70.6511 25.1512V29.4425C70.6511 31.7262 69.8955 33.6922 68.3856 35.3405L68.1747 35.5539C67.6681 36.0653 66.8426 36.0678 66.3336 35.5588L66.3299 35.5613Z" fill="#343A40"/>
<path d="M75.7206 35.5345L73.1877 32.9467C73.0454 32.802 73.0724 32.5653 73.2392 32.45C73.4588 32.2979 73.6661 32.125 73.8611 31.93C74.1739 31.6099 74.413 31.264 74.5786 30.8924C74.6866 30.6508 74.7369 30.3884 74.7369 30.1234V11.273C74.7369 11.0939 74.8816 10.948 75.0619 10.948H78.6888C79.4064 10.948 79.9878 11.5293 79.9878 12.2468V20.345C79.9878 21.3176 80.3275 22.143 81.0083 22.8236C81.6351 23.4504 82.3857 23.7962 83.2602 23.86H84.006V29.0773H83.2284C82.2324 29.0687 81.299 28.897 80.4293 28.5659C80.2159 28.4849 79.9878 28.6407 79.9878 28.8688V29.4513C79.9878 31.7706 79.2187 33.7623 77.6794 35.4266L77.5997 35.5124C77.0943 36.0545 76.2394 36.0643 75.7218 35.5357L75.7206 35.5345Z" fill="#343A40"/>
<path d="M83.5508 23.8563H84.8792C85.8297 23.8563 86.6344 23.5264 87.293 22.8678C87.9946 22.1663 88.3466 21.3286 88.3466 20.3561V11.2681C88.3466 11.0891 88.4914 10.9431 88.6717 10.9431H92.2496C92.9671 10.9431 93.5485 11.5244 93.5485 12.2419V20.3401C93.5485 21.3127 93.9054 22.1381 94.618 22.8188C95.2227 23.4455 95.9624 23.7913 96.8381 23.8551H97.5998V29.0724H96.9841C95.0106 29.0724 93.2713 28.4813 91.77 27.2977C91.3014 26.9286 90.6415 26.9249 90.1705 27.2916C88.6398 28.4788 86.8772 29.0724 84.8804 29.0724H83.552V23.8551L83.5508 23.8563Z" fill="#343A40"/>
<path d="M111.23 7.82307V4.32525C111.23 4.14619 111.375 4.00024 111.556 4.00024H115.202C115.92 4.00024 116.501 4.58158 116.501 5.29905V7.82429C116.501 8.00336 116.356 8.1493 116.176 8.1493H111.556C111.376 8.1493 111.23 8.00458 111.23 7.82429V7.82307Z" fill="#343A40"/>
<path d="M97.127 23.8566H98.6344C99.4881 23.7916 100.233 23.4457 100.87 22.8202C101.572 22.1396 101.924 21.3129 101.924 20.3416V11.2696C101.924 11.0905 102.069 10.9446 102.249 10.9446H105.827C106.544 10.9446 107.126 11.5259 107.126 12.2434V20.3575C107.126 22.7663 106.278 24.8242 104.582 26.5302C102.875 28.2264 100.85 29.0739 98.5056 29.0739H97.1282V23.8566H97.127Z" fill="#343A40"/>
<path d="M93.0849 8.13946H84.5321C84.353 8.13946 84.207 7.99474 84.207 7.81445V4.33258C84.207 4.15352 84.3518 4.00757 84.5321 4.00757H92.2496C92.9671 4.00757 93.5485 4.5889 93.5485 5.30637V7.67709C93.5485 7.93219 93.3412 8.13946 93.0861 8.13946H93.0849Z" fill="#343A40"/>
<path d="M106.473 35.9993H97.7821C97.603 35.9993 97.457 35.8546 97.457 35.6743V32.1924C97.457 32.0134 97.6018 31.8674 97.7821 31.8674H105.5C106.217 31.8674 106.799 32.4488 106.799 33.1662V35.6743C106.799 35.8534 106.654 35.9993 106.473 35.9993Z" fill="#343A40"/>
<path d="M112.222 35.6081L109.682 33.0129C109.54 32.867 109.566 32.6303 109.734 32.515C109.955 32.3629 110.162 32.1887 110.358 31.9925C110.671 31.6712 110.911 31.3241 111.077 30.9525C111.185 30.7109 111.235 30.4472 111.235 30.1823V11.2803C111.235 11.1 111.381 10.9553 111.56 10.9553H115.197C115.916 10.9553 116.498 11.5379 116.498 12.2566V29.5077C116.498 31.8441 115.719 33.8493 114.162 35.5234L114.104 35.586C113.597 36.1293 112.74 36.1391 112.221 35.6093L112.222 35.6081Z" fill="#343A40"/>
<defs>
<linearGradient id="paint0_linear_3467_148748" x1="22.9474" y1="10.9013" x2="35.2268" y2="23.041" gradientUnits="userSpaceOnUse">
<stop stop-color="#FF6000"/>
<stop offset="1" stop-color="#FF6000"/>
</linearGradient>
<linearGradient id="paint1_linear_3467_148748" x1="22.9193" y1="8.10134" x2="34.9091" y2="19.0765" gradientUnits="userSpaceOnUse">
<stop stop-color="#FF6000"/>
<stop offset="0.16" stop-color="#FC5F00"/>
<stop offset="0.24" stop-color="#F45C00"/>
<stop offset="0.31" stop-color="#E75700"/>
<stop offset="0.36" stop-color="#D45000"/>
<stop offset="0.41" stop-color="#BC4700"/>
<stop offset="0.46" stop-color="#9D3C00"/>
<stop offset="0.5" stop-color="#7A2F00"/>
<stop offset="0.53" stop-color="#5A2300"/>
</linearGradient>
<linearGradient id="paint2_linear_3467_148748" x1="17.0539" y1="29.1007" x2="4.7746" y2="16.9611" gradientUnits="userSpaceOnUse">
<stop stop-color="#FF6000"/>
<stop offset="1" stop-color="#FF6000"/>
</linearGradient>
<linearGradient id="paint3_linear_3467_148748" x1="17.0794" y1="31.8991" x2="5.08953" y2="20.9258" gradientUnits="userSpaceOnUse">
<stop stop-color="#FF6000"/>
<stop offset="0.16" stop-color="#FC5F00"/>
<stop offset="0.24" stop-color="#F45C00"/>
<stop offset="0.31" stop-color="#E75700"/>
<stop offset="0.36" stop-color="#D45000"/>
<stop offset="0.41" stop-color="#BC4700"/>
<stop offset="0.46" stop-color="#9D3C00"/>
<stop offset="0.5" stop-color="#7A2F00"/>
<stop offset="0.53" stop-color="#5A2300"/>
</linearGradient>
</defs>
</svg>
